<svg width="16" height="16" viewBox="0 0 16 16" fill="none" xmlns="http://www.w3.org/2000/svg">
<path d="M15.0088 5.48677C15.5561 5.48677 16 5.04298 16 4.49558V0.991191C16 0.443789 15.5561 0 15.0088 0H11.5044C10.957 0 10.5132 0.443789 10.5132 0.991191C10.5132 1.53859 10.957 1.98238 11.5044 1.98238H12.6159L7.99997 6.59829L3.38412 1.98238H4.49558C5.04298 1.98238 5.48677 1.53859 5.48677 0.991191C5.48677 0.443789 5.04298 0 4.49558 0H0.991191C0.443855 0 0 0.443789 0 0.991191V4.49558C0 5.04298 0.443855 5.48677 0.991191 5.48677C1.53866 5.48677 1.98238 5.04298 1.98238 4.49558V3.38412L6.59829 8.00003L1.98238 12.6159V11.5044C1.98238 10.957 1.53866 10.5132 0.991191 10.5132C0.443855 10.5132 0 10.957 0 11.5044V15.0088C0 15.5562 0.443855 16 0.991191 16H4.49558C5.04298 16 5.48677 15.5562 5.48677 15.0088C5.48677 14.4614 5.04298 14.0176 4.49558 14.0176H3.38412L8.00003 9.40171L12.6159 14.0176H11.5044C10.957 14.0176 10.5132 14.4614 10.5132 15.0088C10.5132 15.5562 10.957 16 11.5044 16H15.0088C15.5561 16 16 15.5562 16 15.0088V11.5044C16 10.957 15.5561 10.5132 15.0088 10.5132C14.4613 10.5132 14.0176 10.957 14.0176 11.5044V12.6159L9.40171 7.99997L14.0176 3.38406V4.49551C14.0176 5.04298 14.4613 5.48677 15.0088 5.48677Z" fill="#7F93C7"/>
</svg>
